<?xml version="1.0" encoding="UTF-8" standalone="no" ?>
<!DOCTYPE svg PUBLIC "-//W3C//DTD SVG 1.1//EN" "http://www.w3.org/Graphics/SVG/1.1/DTD/svg11.dtd">
<svg xmlns="http://www.w3.org/2000/svg" xmlns:xlink="http://www.w3.org/1999/xlink" version="1.1" width="1280" height="1024" viewBox="0 0 1280 1024" xml:space="preserve">
<desc>Created with Fabric.js 5.3.0</desc>
<defs>
</defs>
<g transform="matrix(1 0 0 1 640 512)" id="background-logo"  >
<rect style="stroke: none; stroke-width: 0; stroke-dasharray: none; stroke-linecap: butt; stroke-dashoffset: 0; stroke-linejoin: miter; stroke-miterlimit: 4; fill: rgb(255,255,255); fill-opacity: 0; fill-rule: nonzero; opacity: 1;"  paint-order="stroke"  x="-640" y="-512" rx="0" ry="0" width="1280" height="1024" />
</g>
<g transform="matrix(1.0149759824837594 0 0 1.0149759824837603 210.86271493952273 511.07469761359937)" id="logo-logo"  >
<g style=""  paint-order="stroke"   >
		<g transform="matrix(1.0184303131456913 0 0 1.0184303131456913 52.438960439711195 -33.20082820854955)"  >
<path style="stroke: none; stroke-width: 1; stroke-dasharray: none; stroke-linecap: butt; stroke-dashoffset: 0; stroke-linejoin: miter; stroke-miterlimit: 4; fill: rgb(117,23,157); fill-rule: nonzero; opacity: 1;"  paint-order="stroke"  transform=" translate(-213.93998391234015, -97.75)" d="M 231.3 112.4 C 238.5 114 245 116.2 250.3 118.4 L 209 77.1 C 207.5 77.89999999999999 206 78.8 204.5 79.8 C 193 87.2 184.2 96 178.3 106.19999999999999 C 175.9 110.29999999999998 179.9 115.29999999999998 184.4 113.79999999999998 C 198.8 109.1 214.6 108.6 231.3 112.4 z" stroke-linecap="round" />
</g>
		<g transform="matrix(1.0184303131456913 0 0 1.0184303131456913 61.682340129579245 13.818745394195759)"  >
<path style="stroke: none; stroke-width: 1; stroke-dasharray: none; stroke-linecap: butt; stroke-dashoffset: 0; stroke-linejoin: miter; stroke-miterlimit: 4; fill: rgb(117,23,157); fill-rule: nonzero; opacity: 1;"  paint-order="stroke"  transform=" translate(-223.01608815880297, -143.91867054704306)" d="M 228.6 123 C 215.2 120.1 202.79999999999998 120.1 191.39999999999998 123.1 C 186.79999999999998 124.3 186.09999999999997 130.6 190.39999999999998 132.79999999999998 C 203.79999999999998 139.7 215.39999999999998 150.49999999999997 224.59999999999997 164.89999999999998 C 224.99999999999997 165.59999999999997 225.49999999999997 166.29999999999998 225.89999999999998 166.99999999999997 L 258.5 134.39999999999998 C 254.9 132.5 243.5 126.3 228.6 123 z" stroke-linecap="round" />
</g>
		<g transform="matrix(1.0184303131456913 0 0 1.0184303131456913 15.709287580272303 -59.59455798763062)"  >
<path style="stroke: none; stroke-width: 1; stroke-dasharray: none; stroke-linecap: butt; stroke-dashoffset: 0; stroke-linejoin: miter; stroke-miterlimit: 4; fill: rgb(117,23,157); fill-rule: nonzero; opacity: 1;"  paint-order="stroke"  transform=" translate(-177.875, -71.83391184119702)" d="M 201 69 L 168.4 36.4 C 166.4 39.8 160.20000000000002 51.3 157 66.2 C 154 79.6 154 92 157 103.4 C 158.2 108 164.5 108.7 166.7 104.4 C 173.6 91 184.39999999999998 79.4 198.79999999999998 70.2 C 199.6 69.9 200.3 69.4 201 69 z" stroke-linecap="round" />
</g>
		<g transform="matrix(1.0184303131456913 0 0 1.0184303131456913 35.237688834840924 50.605785876048884)"  >
<path style="stroke: none; stroke-width: 1; stroke-dasharray: none; stroke-linecap: butt; stroke-dashoffset: 0; stroke-linejoin: miter; stroke-miterlimit: 4; fill: rgb(117,23,157); fill-rule: nonzero; opacity: 1;"  paint-order="stroke"  transform=" translate(-197.05, -180.03998391234012)" d="M 188.6 144.4 C 184.5 142 179.5 146 181 150.5 C 185.6 164.8 186.2 180.7 182.4 197.4 C 180.8 204.6 178.6 211.1 176.4 216.4 L 217.7 175.10000000000002 C 216.89999999999998 173.60000000000002 216 172.10000000000002 215 170.60000000000002 C 207.6 159.1 198.8 150.3 188.6 144.4 z" stroke-linecap="round" />
</g>
		<g transform="matrix(1.0184303131456913 0 0 1.0184303131456913 -43.073916118840884 4.124642768240051)"  >
<path style="stroke: none; stroke-width: 1; stroke-dasharray: none; stroke-linecap: butt; stroke-dashoffset: 0; stroke-linejoin: miter; stroke-miterlimit: 4; fill: rgb(156,95,185); fill-rule: nonzero; opacity: 1;"  paint-order="stroke"  transform=" translate(-120.15558322660708, -134.40000000000003)" d="M 160 133.8 C 145.1 114.20000000000002 140.4 89.9 146.3 63.500000000000014 C 147.9 56.30000000000001 150.10000000000002 49.80000000000001 152.3 44.500000000000014 L 118.50000000000001 78.30000000000001 C 118.60000000000001 83.20000000000002 119.10000000000001 88.00000000000001 119.90000000000002 92.70000000000002 C 121.50000000000001 101.20000000000002 111.70000000000002 107.10000000000002 105.00000000000001 101.60000000000002 C 103.20000000000002 100.10000000000002 101.50000000000001 98.60000000000002 99.90000000000002 96.90000000000002 L 92.20000000000002 104.60000000000002 C 96.10000000000002 108.50000000000003 100.30000000000001 112.00000000000003 104.70000000000002 115.00000000000003 C 111.80000000000001 119.80000000000003 108.90000000000002 131.00000000000003 100.30000000000001 131.70000000000002 C 92.20000000000002 132.4 83.70000000000002 131.8 74.80000000000001 129.8 C 72.70000000000002 129.3 70.60000000000001 128.8 68.60000000000001 128.20000000000002 L 66.4 130.4 L 77.4 141.4 C 88.60000000000001 143.3 99.4 143.3 109.60000000000001 141.3 C 118.00000000000001 139.70000000000002 123.80000000000001 149.60000000000002 118.30000000000001 156.10000000000002 C 114.50000000000001 160.70000000000002 110.00000000000001 164.90000000000003 104.80000000000001 168.8 L 112.60000000000001 176.60000000000002 C 120.2 170.70000000000002 126.60000000000001 163.90000000000003 131.60000000000002 156.50000000000003 C 136.40000000000003 149.40000000000003 147.50000000000003 152.40000000000003 148.3 160.90000000000003 C 149 169.00000000000003 148.4 177.50000000000003 146.4 186.40000000000003 C 144.9 193.40000000000003 142.70000000000002 199.60000000000002 140.6 204.60000000000002 L 160.29999999999998 224.3 C 162.29999999999998 220.9 168.49999999999997 209.4 171.7 194.5 C 176.9 171.3 172.9 150.8 160 133.8 z" stroke-linecap="round" />
</g>
</g>
</g>
<g transform="matrix(1.9211538461538462 0 0 1.9211538461538462 768.490170821012 507.4853159928505)" id="text-logo"  >
<g style=""  paint-order="stroke"   >
		<g transform="matrix(1 0 0 1 0 0)" id="text-logo-path-0"  >
<path style="stroke: rgb(99,19,133); stroke-width: 1.6496216997464468; stroke-dasharray: none; stroke-linecap: butt; stroke-dashoffset: 0; stroke-linejoin: miter; stroke-miterlimit: 4; fill: rgb(117,23,157); fill-rule: nonzero; opacity: 1;"  paint-order="stroke"  transform=" translate(-208.7, 14)" d="M 6.12 0 L 6.12 -9.6 L 14.56 -9.6 C 20.52 -9.6 23.76 -12.56 23.76 -18.8 C 23.76 -24.76 20.8 -28 14.56 -28 L 1.32 -28 L 1.32 0 Z M 6.12 -14.4 L 6.12 -23.2 L 14.56 -23.2 C 18 -23.2 18.96 -22.2 18.96 -18.8 C 18.96 -15.36 17.96 -14.4 14.56 -14.4 Z M 31.68 0 L 52.48 0 L 52.48 -4.8 L 36.48 -4.8 L 36.48 -28 L 31.68 -28 Z M 65.52 0 L 67.68 -5.6 L 80.24 -5.6 L 82.4 0 L 87.52 0 L 76.72 -28 L 71.2 -28 L 60.4 0 Z M 69.52 -10.4 L 73.96 -21.88 L 78.4 -10.4 Z M 102.64 0 L 102.64 -23.2 L 111.44 -23.2 L 111.44 -28 L 89.04 -28 L 89.04 -23.2 L 97.84 -23.2 L 97.84 0 Z M 119.36 0 L 140.16 0 L 140.16 -4.8 L 124.16 -4.8 L 124.16 -28 L 119.36 -28 Z M 142.48 -28 L 153.2 -12.4 L 153.2 0 L 158 0 L 158 -12.4 L 168.72 -28 L 162.88 -28 L 155.6 -17.4 L 148.32 -28 Z M 194.72 0 L 194.72 -28 L 189.92 -28 L 189.92 0 Z M 207.44 0 L 207.44 -21.32 L 221.76 0 L 227.84 0 L 227.84 -28 L 223.04 -28 L 223.04 -6.68 L 208.72 -28 L 202.64 -28 L 202.64 0 Z M 240.56 0 L 240.56 -11.6 L 252.56 -11.6 L 252.56 -16.4 L 240.56 -16.4 L 240.56 -23.2 L 256.56 -23.2 L 256.56 -28 L 235.76 -28 L 235.76 0 Z M 277.32 -4.4 C 270 -4.4 268.08 -6.36 268.08 -14 C 268.08 -21.68 270.04 -23.6 277.32 -23.6 C 284.6 -23.6 286.52 -21.64 286.52 -14 C 286.52 -6.32 284.56 -4.4 277.32 -4.4 Z M 277.32 0.4 C 287.2 0.4 291.32 -3.56 291.32 -14 C 291.32 -24.32 287.32 -28.4 277.32 -28.4 C 267.4 -28.4 263.28 -24.44 263.28 -14 C 263.28 -3.72 267.28 0.4 277.32 0.4 Z M 311.64 0 L 311.64 -23.2 L 320.44 -23.2 L 320.44 -28 L 298.04 -28 L 298.04 -23.2 L 306.84 -23.2 L 306.84 0 Z M 328.36 0 L 349.16 0 L 349.16 -4.8 L 333.16 -4.8 L 333.16 -11.6 L 345.16 -11.6 L 345.16 -16.4 L 333.16 -16.4 L 333.16 -23.2 L 349.16 -23.2 L 349.16 -28 L 328.36 -28 Z M 382.96 -4.32 L 378.96 -6.96 C 377.84 -5.24 375.52 -4.4 371.12 -4.4 C 363.8 -4.4 361.88 -6.36 361.88 -14 C 361.88 -21.68 363.84 -23.6 371.12 -23.6 C 374.8 -23.6 377 -23.04 378.28 -21.88 L 381.48 -25.4 C 379.12 -27.6 375.68 -28.4 371.12 -28.4 C 361.2 -28.4 357.08 -24.44 357.08 -14 C 357.08 -3.72 361.08 0.4 371.12 0.4 C 376.68 0.4 380.68 -0.84 382.96 -4.32 Z M 395.68 0 L 395.68 -11.6 L 411.28 -11.6 L 411.28 0 L 416.08 0 L 416.08 -28 L 411.28 -28 L 411.28 -16.4 L 395.68 -16.4 L 395.68 -28 L 390.88 -28 L 390.88 0 Z" stroke-linecap="round" />
</g>
</g>
</g>
</svg>